<?xml version="1.0" encoding="utf-8"?>
<!-- Generator: Adobe Illustrator 15.1.0, SVG Export Plug-In . SVG Version: 6.00 Build 0)  -->
<!DOCTYPE svg PUBLIC "-//W3C//DTD SVG 1.1//EN" "http://www.w3.org/Graphics/SVG/1.1/DTD/svg11.dtd">
<svg version="1.1" id="Ebene_1" xmlns="http://www.w3.org/2000/svg" xmlns:xlink="http://www.w3.org/1999/xlink" x="0px" y="0px"
	 width="100px" height="70px" viewBox="0 0 100 70" style="enable-background:new 0 0 100 70;" xml:space="preserve">
<style type="text/css">
<![CDATA[
	.st0{fill:#46555A;}
	.st1{fill:#E6E6E6;}
	.st2{fill:#BF483C;stroke:#BF483C;stroke-width:2;stroke-miterlimit:10;}
	.st3{fill:none;stroke:#46555A;stroke-width:2;stroke-miterlimit:10;}
	.st4{fill:none;stroke:#46555A;stroke-width:2;stroke-linejoin:round;stroke-miterlimit:10;}
	.st5{fill:none;stroke:#46555A;stroke-miterlimit:10;}
	.st6{fill:#FFFFFF;stroke:#46555A;stroke-width:2;stroke-miterlimit:10;}
]]>
</style>
<g>
	<g>
		<g>
			<path class="st1" d="M94,60.8c0,1.2-1,2.2-2.2,2.2H8.2C7,63,6,62,6,60.8V10.2C6,9,7,8,8.2,8h83.6C93,8,94,9,94,10.2V60.8z"/>
			<path class="st3" d="M94,60.8c0,1.2-1,2.2-2.2,2.2H8.2C7,63,6,62,6,60.8V10.2C6,9,7,8,8.2,8h83.6C93,8,94,9,94,10.2V60.8z"/>
		</g>
		<g>
			<line class="st4" x1="34" y1="69" x2="67" y2="69"/>
			<rect x="41" y="65" class="st0" width="18" height="5"/>
		</g>
	</g>
	<circle class="st6" cx="76.7" cy="51.2" r="3"/>
	<circle class="st6" cx="51" cy="26.8" r="8.6"/>
	<circle class="st6" cx="25.5" cy="51.2" r="3"/>
	<circle class="st6" cx="42.5" cy="51.2" r="3"/>
	<line class="st5" x1="76" y1="42.5" x2="26" y2="42.5"/>
	<line class="st5" x1="76.5" y1="48" x2="76.5" y2="42"/>
	<line class="st5" x1="59.5" y1="48" x2="59.5" y2="42"/>
	<line class="st5" x1="42.5" y1="48" x2="42.5" y2="42"/>
	<line class="st5" x1="25.5" y1="48" x2="25.5" y2="42"/>
	<line class="st3" x1="51" y1="42" x2="51" y2="36"/>
	<circle class="st2" cx="59.5" cy="51.2" r="3"/>
</g>
</svg>
