<?xml version="1.0" encoding="utf-8"?>
<!-- Generator: Adobe Illustrator 15.1.0, SVG Export Plug-In . SVG Version: 6.00 Build 0)  -->
<!DOCTYPE svg PUBLIC "-//W3C//DTD SVG 1.1//EN" "http://www.w3.org/Graphics/SVG/1.1/DTD/svg11.dtd">
<svg version="1.1" id="Ebene_1" xmlns="http://www.w3.org/2000/svg" xmlns:xlink="http://www.w3.org/1999/xlink" x="0px" y="0px"
	 width="30px" height="30px" viewBox="0 0 30 30" style="enable-background:new 0 0 30 30;" xml:space="preserve">
<style type="text/css">
<![CDATA[
	.st0{fill:#46555A;}
	.st1{clip-path:url(#SVGID_2_);}
	.st2{fill:#FFFFFF;}
]]>
</style>
<g>
	<defs>
		<circle id="SVGID_1_" cx="15" cy="14.7" r="12.5"/>
	</defs>
	<use xlink:href="#SVGID_1_"  style="overflow:visible;fill:#46555A;"/>
	<clipPath id="SVGID_2_">
		<use xlink:href="#SVGID_1_"  style="overflow:visible;"/>
	</clipPath>
	<g class="st1">
		<g>
			<path class="st0" d="M15,4.2c5.8,0,10.5,4.7,10.5,10.5S20.8,25.2,15,25.2c-5.8,0-10.5-4.7-10.5-10.5S9.2,4.2,15,4.2 M15,2.2
				C8.1,2.2,2.5,7.8,2.5,14.7S8.1,27.2,15,27.2c6.9,0,12.5-5.6,12.5-12.5S21.9,2.2,15,2.2L15,2.2z"/>
		</g>
	</g>
</g>
<g>
	<path class="st2" d="M23.4,14.2L23,12.1l-1.7,0c-0.3-0.7-0.6-1.2-1.1-1.8L21.1,9l-1.7-1.4l-1.2,1.1c-0.6-0.3-1.3-0.5-2-0.7L16,6.5
		l-2.2,0l-0.3,1.7c-0.7,0.2-1.3,0.4-1.9,0.7l-1.3-1.1L8.7,9.2l0.9,1.5c-0.4,0.5-0.7,1.1-1,1.7l-1.7,0l-0.4,2.1L8.2,15
		c0,0.3,0,0.6,0.1,0.9c0.1,0.4,0.2,0.7,0.3,1L7.2,18l1.1,1.9l1.6-0.6c0.4,0.5,1,0.9,1.5,1.2l-0.3,1.7l2.1,0.7l0.8-1.5
		c0.7,0.1,1.3,0.1,2,0l0.8,1.5l2.1-0.7l-0.3-1.6c0.6-0.4,1.1-0.8,1.6-1.3l1.5,0.6l1.1-1.9l-1.3-1c0.2-0.6,0.3-1.3,0.3-2L23.4,14.2z
		 M15.7,18.8c-2.3,0.4-4.5-1.1-4.9-3.4c-0.4-2.3,1.1-4.5,3.5-4.9s4.5,1.1,4.9,3.4C19.6,16.2,18.1,18.4,15.7,18.8z"/>
</g>
</svg>
