<?xml version="1.0" encoding="utf-8"?>
<!-- Generator: Adobe Illustrator 15.1.0, SVG Export Plug-In . SVG Version: 6.00 Build 0)  -->
<!DOCTYPE svg PUBLIC "-//W3C//DTD SVG 1.1//EN" "http://www.w3.org/Graphics/SVG/1.1/DTD/svg11.dtd">
<svg version="1.1" id="Ebene_1" xmlns="http://www.w3.org/2000/svg" xmlns:xlink="http://www.w3.org/1999/xlink" x="0px" y="0px"
	 width="30px" height="30px" viewBox="0 0 30 30" style="enable-background:new 0 0 30 30;" xml:space="preserve">
<style type="text/css">
<![CDATA[
	.st0{fill:#46555A;}
	.st1{fill:none;stroke:#FFFFFF;stroke-miterlimit:10;}
]]>
</style>
<g>
	<path class="st0" d="M15,26.2C8.7,26.2,3.5,21,3.5,14.7S8.7,3.2,15,3.2c6.3,0,11.5,5.2,11.5,11.5S21.3,26.2,15,26.2z"/>
	<g>
		<path class="st0" d="M15,4.2c5.8,0,10.5,4.7,10.5,10.5S20.8,25.2,15,25.2c-5.8,0-10.5-4.7-10.5-10.5S9.2,4.2,15,4.2 M15,2.2
			C8.1,2.2,2.5,7.8,2.5,14.7S8.1,27.2,15,27.2c6.9,0,12.5-5.6,12.5-12.5S21.9,2.2,15,2.2L15,2.2z"/>
	</g>
</g>
<g>
	<g>
		<rect x="7.5" y="9.5" class="st1" width="15" height="10"/>
		<polyline class="st1" points="8,10 15,15.6 22.1,10 		"/>
		<line class="st1" x1="8" y1="19" x2="13" y2="14"/>
		<line class="st1" x1="22" y1="19" x2="17" y2="14"/>
	</g>
</g>
</svg>
