<svg id="Ebene_1" data-name="Ebene 1" xmlns="http://www.w3.org/2000/svg" viewBox="0 0 25 25"><defs><style>.cls-1{fill:#46555a;}.cls-2{fill:none;}.cls-2,.cls-3{stroke:#fff;stroke-miterlimit:10;stroke-width:0.5px;}</style></defs><title>icon_table_view</title><path class="cls-1" d="M15,26.5A11.5,11.5,0,1,1,26.5,15,11.57,11.57,0,0,1,15,26.5Z" transform="translate(-2.5 -2.5)"/><path class="cls-1" d="M15,4.5A10.5,10.5,0,1,1,4.5,15,10.5,10.5,0,0,1,15,4.5m0-2A12.5,12.5,0,1,0,27.5,15,12.5,12.5,0,0,0,15,2.5h0Z" transform="translate(-2.5 -2.5)"/><path class="cls-2" d="M11.59,8.24H8.23v3.35h3.35V8.24Zm-0.38,3H8.61V8.62h2.6v2.6Z" transform="translate(-2.5 -2.5)"/><path class="cls-3" d="M8.23,16.68h3.35V13.32H8.23v3.35Zm0.38-3h2.6v2.6H8.61V13.7Z" transform="translate(-2.5 -2.5)"/><path class="cls-3" d="M8.23,21.76h3.35V18.41H8.23v3.35Zm0.38-3h2.6v2.6H8.61v-2.6Z" transform="translate(-2.5 -2.5)"/><path class="cls-3" d="M13.34,16.68h8.43V13.32H13.34v3.35Zm0.38-3h7.68v2.6H13.71V13.7Z" transform="translate(-2.5 -2.5)"/><path class="cls-3" d="M13.34,21.76h8.43V18.41H13.34v3.35Zm0.38-3h7.68v2.6H13.71v-2.6Z" transform="translate(-2.5 -2.5)"/><path class="cls-3" d="M21.77,8.24H13.34v3.35h8.43V8.24h0Zm-0.38,3H13.71V8.62h7.68v2.6h0Z" transform="translate(-2.5 -2.5)"/></svg>