<?xml version="1.0" encoding="utf-8"?>
<!-- Generator: Adobe Illustrator 19.2.0, SVG Export Plug-In . SVG Version: 6.00 Build 0)  -->
<svg version="1.1" id="Ebene_1" xmlns="http://www.w3.org/2000/svg" xmlns:xlink="http://www.w3.org/1999/xlink" x="0px" y="0px"
	 width="30px" height="30px" viewBox="0 0 30 30" style="enable-background:new 0 0 30 30;" xml:space="preserve">
<style type="text/css">
	.st0{display:none;}
	.st1{display:inline;}
	.st2{fill:#19232D;}
	.st3{clip-path:url(#SVGID_3_);}
	.st4{display:inline;fill:#B9C832;}
	.st5{fill:#FFFFFF;}
	.st6{fill:#495458;}
</style>
<g class="st0">
	<g class="st1">
		<circle id="SVGID_1_" class="st2" cx="15" cy="14.7" r="12.5"/>
	</g>
	<g class="st1">
		<g>
			<defs>
				<circle id="SVGID_2_" cx="15" cy="14.7" r="12.5"/>
			</defs>
			<clipPath id="SVGID_3_">
				<use xlink:href="#SVGID_2_"  style="overflow:visible;"/>
			</clipPath>
			<g class="st3">
				<circle class="st2" cx="15" cy="14.7" r="12.5"/>
			</g>
		</g>
	</g>
</g>
<g class="st0">
	<path class="st4" d="M23.4,14.2L23,12.1h-1.7c-0.3-0.7-0.6-1.2-1.1-1.8L21.1,9l-1.7-1.4l-1.2,1.1c-0.6-0.3-1.3-0.5-2-0.7L16,6.5
		h-2.2l-0.3,1.7c-0.7,0.2-1.3,0.4-1.9,0.7l-1.3-1.1L8.7,9.2l0.9,1.5c-0.4,0.5-0.7,1.1-1,1.7H6.9l-0.4,2.1L8.2,15
		c0,0.3,0,0.6,0.1,0.9c0.1,0.4,0.2,0.7,0.3,1L7.2,18l1.1,1.9l1.6-0.6c0.4,0.5,1,0.9,1.5,1.2l-0.3,1.7l2.1,0.7l0.8-1.5
		c0.7,0.1,1.3,0.1,2,0l0.8,1.5l2.1-0.7l-0.3-1.6c0.6-0.4,1.1-0.8,1.6-1.3l1.5,0.6l1.1-1.9l-1.3-1c0.2-0.6,0.3-1.3,0.3-2L23.4,14.2z
		 M15.7,18.8c-2.3,0.4-4.5-1.1-4.9-3.4c-0.4-2.3,1.1-4.5,3.5-4.9s4.5,1.1,4.9,3.4C19.6,16.2,18.1,18.4,15.7,18.8z"/>
</g>
<rect x="6.2" y="6.7" class="st5" width="17" height="16"/>
<g id="Layer_2">
	<g id="Ñëîé_1">
		<path class="st6" d="M14.9,2.2C8,2.2,2.4,7.8,2.4,14.7S8,27.2,14.9,27.2s12.5-5.6,12.5-12.5S21.9,2.2,14.9,2.2z M20.7,18.6
			c-0.5,0.8-1.1,1.4-1.9,1.9c-0.2,0.1-0.4,0.2-0.6,0.3c0.1,0.4-0.2,0.9-0.7,1l-1.7,0.5c-0.5,0.1-1-0.2-1.1-0.6l-0.1-0.5
			c-0.1-0.5,0.2-1,0.6-1.1l1.7-0.5c0.4-0.1,0.8,0.1,1,0.4c0.2-0.1,0.4-0.1,0.6-0.3c0.3-0.2,0.6-0.4,0.8-0.6l0,0
			c-0.3,0-0.5-0.2-0.5-0.5v-4.4c0-0.3,0.2-0.5,0.5-0.5h0.6c0.1,0,0.3,0.1,0.4,0.2c0-1.2-0.4-2.3-1.1-3.2h-0.1
			c-0.2,0-0.3-0.1-0.4-0.2c-1.9-2-5.2-2.1-7.2-0.2c-0.1,0.1-0.1,0.1-0.2,0.2c-0.1,0.1-0.2,0.2-0.4,0.2l0,0h-0.1
			c-0.7,0.9-1.1,2-1.1,3.2c0.1-0.1,0.2-0.2,0.4-0.2h0.6c0.3,0,0.6,0.2,0.6,0.5l0,0v4.4c0,0.3-0.2,0.5-0.6,0.5H10
			c-0.3,0-0.5-0.2-0.5-0.4c-0.9,0-1.6-1.1-1.6-2.3c0-0.7,0.2-1.3,0.7-1.8C8.4,12.9,8.9,11.3,10,10c-0.1-0.2,0-0.4,0.1-0.5l0,0
			c2.7-2.7,7-2.8,9.7-0.1l0.1,0.1l0,0c0.1,0,0.2,0.2,0.1,0.4c1.1,1.3,1.6,3,1.4,4.6c0.4,0.5,0.7,1.2,0.7,1.8
			C22,17.5,21.4,18.4,20.7,18.6z"/>
	</g>
</g>
</svg>
