<?xml version="1.0" encoding="utf-8"?>
<!-- Generator: Adobe Illustrator 15.1.0, SVG Export Plug-In . SVG Version: 6.00 Build 0)  -->
<!DOCTYPE svg PUBLIC "-//W3C//DTD SVG 1.1//EN" "http://www.w3.org/Graphics/SVG/1.1/DTD/svg11.dtd">
<svg version="1.1" id="Ebene_1" xmlns="http://www.w3.org/2000/svg" xmlns:xlink="http://www.w3.org/1999/xlink" x="0px" y="0px"
	 width="100px" height="70px" viewBox="0 0 100 70" style="enable-background:new 0 0 100 70;" xml:space="preserve">
<style type="text/css">
<![CDATA[
	.st0{fill:#46555A;}
	.st1{fill:#E6E6E6;}
	.st2{fill:#BF483C;}
	.st3{fill:none;stroke:#46555A;stroke-width:2;stroke-miterlimit:10;}
	.st4{fill:none;stroke:#46555A;stroke-width:2;stroke-linejoin:round;stroke-miterlimit:10;}
	.st5{fill:#FFFFFF;stroke:#46555A;stroke-width:2;stroke-miterlimit:10;}
]]>
</style>
<g>
	<g>
		<g>
			<path class="st1" d="M94,60.8c0,1.2-1,2.2-2.2,2.2H8.2C7,63,6,62,6,60.8V10.2C6,9,7,8,8.2,8h83.6C93,8,94,9,94,10.2V60.8z"/>
			<path class="st3" d="M94,60.8c0,1.2-1,2.2-2.2,2.2H8.2C7,63,6,62,6,60.8V10.2C6,9,7,8,8.2,8h83.6C93,8,94,9,94,10.2V60.8z"/>
		</g>
		<g>
			<line class="st4" x1="34" y1="69" x2="67" y2="69"/>
			<rect x="41" y="65" class="st0" width="18" height="5"/>
		</g>
	</g>
	<g>
		<circle class="st5" cx="48.7" cy="42.2" r="3"/>
		<circle class="st5" cx="21.3" cy="42.2" r="3"/>
		<circle class="st5" cx="35" cy="42.2" r="3"/>
		<g>
			<circle class="st5" cx="67.6" cy="41.9" r="10.1"/>
			<g>
				<g>
					<path class="st2" d="M62.9,44.4c1,1,2,2,3,3c0.9,0.9,2.6,0.5,3.4-0.4c4.7-5.2,9.4-10.4,14.1-15.6c1.6-1.8-2.1-2.1-3.2-0.9
						c-4.7,5.2-9.4,10.4-14.1,15.6c1.1-0.1,2.2-0.2,3.4-0.4c-1-1-2-2-3-3C65.3,41.7,61.6,43.2,62.9,44.4L62.9,44.4z"/>
				</g>
			</g>
		</g>
	</g>
</g>
</svg>
