<?xml version="1.0" encoding="utf-8"?>
<svg version="1.1" id="Ebene_1" x="0px" y="0px" width="30px" height="30px" viewBox="0 0 30 30" style="enable-background:new 0 0 30 30;" xmlns="http://www.w3.org/2000/svg">
  <style type="text/css">

	.st0{fill:#19232D;}
	.st1{fill:none;stroke:#B9C832;stroke-linejoin:round;stroke-miterlimit:10;}
	.st2{fill:none;stroke:#B9C832;stroke-width:2;stroke-linejoin:round;stroke-miterlimit:10;}

</style>
  <g>
    <circle class="st0" cx="15" cy="14.7" r="12.5" style="fill: rgb(70, 85, 90);"/>
  </g>
  <path d="M 19.197 6.505 C 17.724 6.505 16.532 7.699 16.532 9.172 C 16.532 9.359 16.553 9.546 16.594 9.729 L 10.539 12.757 C 10.034 12.175 9.301 11.84 8.532 11.838 C 7.059 11.838 5.864 13.033 5.864 14.505 C 5.864 15.978 7.059 17.173 8.532 17.173 C 9.301 17.172 10.035 16.837 10.54 16.255 L 16.591 19.281 C 16.551 19.464 16.532 19.651 16.532 19.839 C 16.532 21.312 17.724 22.505 19.197 22.505 C 20.67 22.505 21.864 21.312 21.864 19.839 C 21.864 18.365 20.67 17.173 19.197 17.173 C 18.427 17.173 17.694 17.507 17.188 18.089 L 11.138 15.062 C 11.177 14.879 11.197 14.693 11.197 14.505 C 11.196 14.318 11.175 14.133 11.135 13.949 L 17.19 10.922 C 17.695 11.503 18.428 11.837 19.197 11.838 C 20.67 11.838 21.864 10.645 21.864 9.172 C 21.864 7.699 20.67 6.505 19.197 6.505 Z" style="fill: rgb(255, 255, 255);"/>
</svg>