<?xml version="1.0" encoding="utf-8"?>
<!-- Generator: Adobe Illustrator 15.1.0, SVG Export Plug-In . SVG Version: 6.00 Build 0)  -->
<!DOCTYPE svg PUBLIC "-//W3C//DTD SVG 1.1//EN" "http://www.w3.org/Graphics/SVG/1.1/DTD/svg11.dtd">
<svg version="1.1" id="Ebene_1" xmlns="http://www.w3.org/2000/svg" xmlns:xlink="http://www.w3.org/1999/xlink" x="0px" y="0px"
	 width="30px" height="30px" viewBox="0 0 30 30" style="enable-background:new 0 0 30 30;" xml:space="preserve">
<style type="text/css">
<![CDATA[
	.st0{fill:#46555A;}
	.st1{clip-path:url(#SVGID_2_);}
	.st2{fill:#FFFFFF;}
]]>
</style>
<g>
	<circle class="st0" cx="15" cy="14.7" r="12.5"/>
	<g>
		<defs>
			<circle id="SVGID_1_" cx="15" cy="14.7" r="12.5"/>
		</defs>
		<clipPath id="SVGID_2_">
			<use xlink:href="#SVGID_1_"  style="overflow:visible;"/>
		</clipPath>
		<g class="st1">
			<path class="st2" d="M6.2,23.2l8.7,4.5l9.5-4.5c0-3.7-1.8-6.9-4.5-8.4c-1.2,1.2-2.8,1.9-4.6,1.9c-1.8,0-3.4-0.6-4.6-1.8
				C8,16.4,6.2,19.5,6.2,23.2z"/>
			<ellipse class="st2" cx="15.3" cy="9.9" rx="4.4" ry="4.6"/>
		</g>
	</g>
	<g>
		<path class="st0" d="M15,4.2c5.8,0,10.5,4.7,10.5,10.5S20.8,25.2,15,25.2c-5.8,0-10.5-4.7-10.5-10.5S9.2,4.2,15,4.2 M15,2.2
			C8.1,2.2,2.5,7.8,2.5,14.7S8.1,27.2,15,27.2c6.9,0,12.5-5.6,12.5-12.5S21.9,2.2,15,2.2L15,2.2z"/>
	</g>
</g>
</svg>
