<?xml version="1.0" encoding="iso-8859-1"?>
<!-- Generator: Adobe Illustrator 21.0.2, SVG Export Plug-In . SVG Version: 6.00 Build 0)  -->
<svg version="1.1" id="Layer_1" xmlns="http://www.w3.org/2000/svg" xmlns:xlink="http://www.w3.org/1999/xlink" x="0px" y="0px"
	 viewBox="0 0 182.1 138" style="enable-background:new 0 0 182.1 138;" xml:space="preserve">
<title>icon_angle</title>
<path style="fill:#46555A;" d="M177.728,124.215c-0.83-0.332-1.793-0.515-2.714-0.515H98.112c0.068-1.16,0.102-2.388,0.102-3.7
	c0-18.765-7.984-36.151-22.02-48.218l59.933-59.452c1.368-1.368,2.087-3.105,2.087-5.03c0-3.86-3.14-7-7-7
	c-1.925,0-3.661,0.719-5.021,2.079L2.156,125.716c-1.382,1.251-2.142,3.017-2.142,4.984c0,3.86,3.14,7,7,7h168
	c2.935,0,5.52-1.721,6.585-4.386C183.011,129.786,181.238,125.618,177.728,124.215z M84.214,119.982c0,1.36-0.037,2.581-0.113,3.718
	H23.988l42.266-42.009C77.633,91.06,84.303,105.187,84.214,119.982z"/>
</svg>
