<svg id="Ebene_1" data-name="Ebene 1" xmlns="http://www.w3.org/2000/svg" viewBox="0 0 25 25"><defs><style>.cls-1{fill:#46555a;}.cls-2{fill:#fff;stroke:#fff;stroke-miterlimit:10;stroke-width:0.2px;}</style></defs><title>icon_grid_view</title><path class="cls-1" d="M15,61.25a11.5,11.5,0,1,1,11.5-11.5A11.57,11.57,0,0,1,15,61.25Z" transform="translate(-2.5 -37.25)"/><path class="cls-1" d="M15,39.25A10.5,10.5,0,1,1,4.5,49.75,10.5,10.5,0,0,1,15,39.25m0-2a12.5,12.5,0,1,0,12.5,12.5A12.5,12.5,0,0,0,15,37.25h0Z" transform="translate(-2.5 -37.25)"/><path class="cls-2" d="M13.07,46.72h3.86V42.86H13.07v3.86Zm0.55-3.31h2.76v2.76H13.62V43.41ZM8.11,46.72H12V42.86H8.11v3.86Zm0.55-3.31h2.76v2.76H8.66V43.41ZM18,42.86v3.86h3.86V42.86H18Zm3.31,3.31H18.58V43.41h2.76v2.76Zm-8.27,5.51h3.86V47.82H13.07v3.86Zm0.55-3.31h2.76v2.76H13.62V48.37ZM8.11,51.68H12V47.82H8.11v3.86Zm0.55-3.31h2.76v2.76H8.66V48.37ZM18,51.68h3.86V47.82H18v3.86Zm0.55-3.31h2.76v2.76H18.58V48.37Zm-5.51,8.27h3.86V52.78H13.07v3.86Zm0.55-3.31h2.76v2.76H13.62V53.33ZM8.11,56.64H12V52.78H8.11v3.86Zm0.55-3.31h2.76v2.76H8.66V53.33ZM18,56.64h3.86V52.78H18v3.86Zm0.55-3.31h2.76v2.76H18.58V53.33Z" transform="translate(-2.5 -37.25)"/></svg>