<svg width="29.999999999999996" height="29.999999999999996" xmlns="http://www.w3.org/2000/svg">
 <style type="text/css">
  <![CDATA[
	.st0{fill:#46555A;}
	.st1{fill:none;stroke:#FFFFFF;stroke-miterlimit:10;}
]]>
 </style>

 <g>
  <title>background</title>
  <rect fill="none" id="canvas_background" height="402" width="582" y="-1" x="-1"/>
 </g>
 <g>
  <title>Layer 1</title>
  <g id="svg_1">
   <path id="svg_2" d="m14.886364,26.200001c-6.3,0 -11.5,-5.200001 -11.5,-11.500001s5.2,-11.5 11.5,-11.5c6.299999,0 11.5,5.2 11.5,11.5s-5.200001,11.500001 -11.5,11.500001z" class="st0"/>
   <g id="svg_3">
    <path id="svg_4" d="m14.886364,4.2c5.799999,0 10.5,4.7 10.5,10.5s-4.700001,10.500001 -10.5,10.500001c-5.8,0 -10.5,-4.700001 -10.5,-10.500001s4.7,-10.5 10.5,-10.5m0,-2c-6.9,0 -12.5,5.6 -12.5,12.5s5.6,12.500001 12.5,12.500001c6.9,0 12.5,-5.6 12.5,-12.500001s-5.6,-12.5 -12.5,-12.5l0,0z" class="st0"/>
   </g>
  </g>
  <g id="svg_19">
   <g transform="matrix(0.0260565, 0, 0, 0.023911, -24.6036, -22.5981)" id="svg_16"/>
   <path id="svg_18" d="m-606.329224,-26.25c3.68396,0 6.670471,2.740559 6.670471,6.121214c0,2.304924 -1.388489,4.31194 -3.439575,5.356063l-6.461792,0c-2.051086,-1.044122 -3.439514,-3.051139 -3.439514,-5.356063c0,-3.380655 2.98645,-6.121214 6.67041,-6.121214zm3.7771,9.58728c1.00885,-0.925835 1.564453,-2.156748 1.564453,-3.466066l-1.172485,0l0,-0.765152l1.10791,0c-0.091431,-0.537973 -0.278687,-1.053829 -0.554565,-1.530302l-1.387207,0l0,-0.765152l0.837524,0c-0.122925,-0.140621 -0.2547,-0.276125 -0.39563,-0.405458c-0.602234,-0.552584 -1.322876,-0.956894 -2.109497,-1.193134l0,0.833441l-0.833801,0l0,-1.016695c-0.273376,-0.03907 -0.55188,-0.059299 -0.833801,-0.059299s-0.560425,0.020205 -0.833801,0.059299l0,1.016695l-0.833801,0l0,-0.833441c-0.78656,0.23624 -1.507263,0.640526 -2.109497,1.193134c-0.140869,0.129333 -0.272705,0.264837 -0.39563,0.405458l0.837524,0l0,0.765152l-1.387207,0c-0.275879,0.476473 -0.463196,0.992329 -0.554565,1.530302l1.10791,0l0,0.765152l-1.172485,0c0,1.309319 0.555603,2.540232 1.564453,3.466066c0.139587,0.128044 0.285645,0.247814 0.437256,0.359694l2.506042,0l0.476501,-6.121214l0.714661,0l0.47644,6.121214l2.506042,0c0.151611,-0.111879 0.297729,-0.231674 0.437256,-0.359694z"/>
  </g>
  <g fill="white" id="svg_26">
   <g transform="matrix(0.038706, 0, 0, 0.0383528, -15.0662, -15.3509)" id="svg_23"/>
   <path id="svg_25" d="m14.886236,5.340572c5.472448,0 9.908724,4.395811 9.908724,9.818316c0,3.697053 -2.062561,6.916263 -5.109333,8.591006l-9.598772,0c-3.046789,-1.674744 -5.109363,-4.893953 -5.109363,-8.591006c0,-5.422505 4.436304,-9.818316 9.908744,-9.818316zm5.610706,15.377817c1.498653,-1.485018 2.324017,-3.459381 2.324017,-5.559501l-1.741764,0l0,-1.227288l1.645735,0c-0.13574,-0.862899 -0.41396,-1.690323 -0.823738,-2.454577l-2.060585,0l0,-1.227289l1.244085,0c-0.182653,-0.225552 -0.378387,-0.442897 -0.587749,-0.650347c-0.894533,-0.886332 -1.965103,-1.534837 -3.13352,-1.913764l0,1.336823l-1.238594,0l0,-1.630759c-0.406064,-0.062669 -0.819793,-0.095117 -1.238592,-0.095117s-0.832528,0.03241 -1.238593,0.095117l0,1.630759l-1.238591,0l0,-1.336823c-1.168375,0.378927 -2.23898,1.027393 -3.133515,1.913764c-0.20936,0.20745 -0.405094,0.424795 -0.587749,0.650347l1.244088,0l0,1.227289l-2.060631,0c-0.409784,0.764255 -0.688043,1.591679 -0.823747,2.454577l1.645785,0l0,1.227288l-1.741776,0c0,2.10012 0.825371,4.074483 2.324029,5.559501c0.207272,0.205379 0.424297,0.397488 0.649487,0.576939l3.722619,0l0.707779,-9.818305l1.061628,0l0.707778,9.818305l3.72263,0c0.225189,-0.179451 0.442253,-0.371597 0.649485,-0.576939z"/>
  </g>
 </g>
</svg>