<?xml version="1.0" encoding="utf-8"?>
<!-- Generator: Adobe Illustrator 15.1.0, SVG Export Plug-In . SVG Version: 6.00 Build 0)  -->
<!DOCTYPE svg PUBLIC "-//W3C//DTD SVG 1.1//EN" "http://www.w3.org/Graphics/SVG/1.1/DTD/svg11.dtd">
<svg version="1.1" id="Ebene_1" xmlns="http://www.w3.org/2000/svg" xmlns:xlink="http://www.w3.org/1999/xlink" x="0px" y="0px"
	 width="100px" height="70px" viewBox="0 0 100 70" style="enable-background:new 0 0 100 70;" xml:space="preserve">
<style type="text/css">
<![CDATA[
	.st0{fill:#46555A;}
	.st1{fill:#E6E6E6;}
	.st2{fill:#BF483C;}
	.st3{fill:none;stroke:#46555A;stroke-width:2;stroke-miterlimit:10;}
	.st4{fill:none;stroke:#46555A;stroke-width:2;stroke-linejoin:round;stroke-miterlimit:10;}
	.st5{fill:#E6E6E6;stroke:#46555A;stroke-width:2;stroke-miterlimit:10;}
	.st6{fill:#FFFFFF;stroke:#46555A;stroke-width:2;stroke-miterlimit:10;}
]]>
</style>
<g>
	<g>
		<g>
			<path class="st1" d="M94,60.8c0,1.2-1,2.2-2.2,2.2H8.2C7,63,6,62,6,60.8V10.2C6,9,7,8,8.2,8h83.6C93,8,94,9,94,10.2V60.8z"/>
			<path class="st3" d="M94,60.8c0,1.2-1,2.2-2.2,2.2H8.2C7,63,6,62,6,60.8V10.2C6,9,7,8,8.2,8h83.6C93,8,94,9,94,10.2V60.8z"/>
		</g>
		<g>
			<line class="st4" x1="34" y1="69" x2="67" y2="69"/>
			<rect x="41" y="65" class="st0" width="18" height="5"/>
		</g>
	</g>
	<path class="st6" d="M54,23.1V19h-9v4.3c-6,1.7-11.1,7.7-11.1,14.9c0,8.5,7.5,15.4,16.2,15.4s15.4-6.9,15.4-15.4
		C65.5,30.7,60,24.4,54,23.1z"/>
	<ellipse class="st2" cx="57.9" cy="45.7" rx="2.3" ry="2.3"/>
	<ellipse class="st5" cx="50" cy="37.6" rx="6.2" ry="6.3"/>
</g>
</svg>
