<?xml version="1.0" encoding="utf-8"?>
<!-- Generator: Adobe Illustrator 19.2.0, SVG Export Plug-In . SVG Version: 6.00 Build 0)  -->
<svg version="1.1" id="Ebene_1" xmlns="http://www.w3.org/2000/svg" xmlns:xlink="http://www.w3.org/1999/xlink" x="0px" y="0px"
	 viewBox="0 0 100 70" style="enable-background:new 0 0 100 70;" xml:space="preserve">
<style type="text/css">
	.st0{fill:#BF483C;}
</style>
<g transform="translate(0,-952.36218)">
	<path class="st0" d="M49.8,959.4c-1.4,0.1-2.7,0.8-3.4,2l-32.6,55c-1.1,1.9-0.4,4.3,1.5,5.4c0.6,0.3,1.3,0.5,2,0.5h65.2
		c2.3,0,4.1-1.8,4.1-4c0-0.7-0.2-1.4-0.5-2l-32.6-55C52.8,960.1,51.3,959.3,49.8,959.4z M50,976.9c1.9,0,3.5,1.6,3.5,3.5l-0.9,15.7
		c0,1.4-1.2,2.6-2.6,2.6c-1.4,0-2.6-1.2-2.6-2.6l-0.9-15.7C46.5,978.5,48.1,976.9,50,976.9z M50,1003.1c2.4,0,4.4,2,4.4,4.4
		c0,2.4-2,4.4-4.4,4.4c-2.4,0-4.4-2-4.4-4.4S47.6,1003.1,50,1003.1L50,1003.1z"/>
</g>
</svg>
