<?xml version="1.0" encoding="utf-8"?>
<!-- Generator: Adobe Illustrator 15.1.0, SVG Export Plug-In . SVG Version: 6.00 Build 0)  -->
<!DOCTYPE svg PUBLIC "-//W3C//DTD SVG 1.1//EN" "http://www.w3.org/Graphics/SVG/1.1/DTD/svg11.dtd">
<svg version="1.1" id="Ebene_1" xmlns="http://www.w3.org/2000/svg" xmlns:xlink="http://www.w3.org/1999/xlink" x="0px" y="0px"
	 width="30px" height="30px" viewBox="0 0 30 30" style="enable-background:new 0 0 30 30;" xml:space="preserve">
<style type="text/css">
<![CDATA[
	.st0{fill:#46555A;}
	.st1{fill:none;stroke:#FFFFFF;stroke-miterlimit:10;}
	.st2{fill:#FFFFFF;}
]]>
</style>
<g>
	<circle class="st0" cx="15" cy="14.7" r="12.5"/>
</g>
<g>
	<g>
		<path class="st1" d="M19.5,19c0,0.8-0.7,1.5-1.5,1.5h-6c-0.8,0-1.5-0.7-1.5-1.5v-2c0-0.8,0.7-1.5,1.5-1.5h6c0.8,0,1.5,0.7,1.5,1.5
			V19z"/>
	</g>
	<g>
		<path class="st1" d="M10,17.5H9.1c-0.6,0-1.6-0.5-1.6-1.1v-4.7c0-0.6,0.9-1.1,1.6-1.1h12.3c0.6,0,1.2,0.5,1.2,1.1v4.7
			c0,0.6-0.5,1.1-1.2,1.1H20"/>
	</g>
	<g>
		<path class="st1" d="M11.5,11V9.1c0-0.9,0.8-1.6,1.7-1.6h4.1c0.9,0,1.2,0.7,1.2,1.6V11"/>
	</g>
	<rect x="19" y="12" class="st2" width="1" height="1"/>
</g>
</svg>
