<?xml version="1.0" encoding="utf-8"?>
<!-- Generator: Adobe Illustrator 19.2.0, SVG Export Plug-In . SVG Version: 6.00 Build 0)  -->
<svg version="1.1" id="Layer_1" xmlns="http://www.w3.org/2000/svg" xmlns:xlink="http://www.w3.org/1999/xlink" x="0px" y="0px"
	 viewBox="0 0 165 127" style="enable-background:new 0 0 165 127;" xml:space="preserve">
<style type="text/css">
	.st0{fill:#46555A;}
</style>
<title>Fill 137</title>
<desc>Created with Sketch.</desc>
<g>
	<g transform="translate(-5443.000000, -2493.000000)">
		<path class="st0" d="M5605.7,2504.9l-11.1-10c-1.7-1.5-4.3-1.4-5.8,0.3l-84.5,93.6l-43.9-39.6c-1.7-1.5-4.3-1.4-5.8,0.3l-10,11.1
			c-0.7,0.8-1.1,1.9-1,3c0.1,1.1,0.5,2.1,1.3,2.8l57.9,52.3c0.6,0.5,1.3,0.8,2,0.9c0.3,0.1,0.6,0.1,0.9,0.1c0.1,0,0.1,0,0.2,0
			c1.1-0.1,2.1-0.5,2.8-1.3l97.2-107.6c0.7-0.8,1.1-1.9,1-3C5607,2506.6,5606.5,2505.6,5605.7,2504.9"/>
	</g>
</g>
</svg>
