<svg id="Ebene_1" data-name="Ebene 1" xmlns="http://www.w3.org/2000/svg" viewBox="0 0 193.71 48.02"><defs><style>.cls-1{fill:#111414;}.cls-2{fill:none;}.cls-2,.cls-4{stroke:#111414;stroke-miterlimit:3.86;stroke-width:0.62px;}.cls-3{fill:#d71b19;}</style></defs><title>fms_logo</title><polygon points="24.9 30.11 26.5 24.41 14.9 24.41 16 20.21 31.2 20.21 32.8 14.11 7 14.11 0 39.71 10.7 39.71 13.3 30.11 24.9 30.11"/><polygon points="74.2 14.11 59.8 14.11 51.2 27.71 51.1 27.71 49.6 14.11 35.3 14.11 28.3 39.71 36.6 39.71 41.5 21.41 41.7 21.41 43.4 39.71 50.4 39.71 61.9 21.41 62 21.41 57 39.71 67.3 39.71 74.2 14.11"/><path d="M90.5,58.3c0.4,5.6,6.5,7.8,14,7.8s16.6-2.5,18.3-8.6c0.8-2.8-.4-5.2-3.5-6.5-2.8-1.2-6.3-1.6-9.6-2-1.3-.2-3.8-0.5-3.5-1.8s2.5-1.6,4-1.6c2.8,0,4.6.7,5.1,2.6l9.6-2c-1-4.4-6.5-6.3-12.7-6.3a28.62,28.62,0,0,0-10.8,1.9c-3.3,1.5-5.7,3.9-6.3,6.4-1.7,6.1,6,7.4,12.4,8.3,1.6,0.2,4.2.5,3.8,2.1-0.4,1.4-3.2,1.6-4.7,1.6-3.2,0-5.4-.8-5.7-3.1Z" transform="translate(-18.3 -25.99)"/><path class="cls-1" d="M34.9,26.3H192A19.67,19.67,0,0,1,211.7,46a19.24,19.24,0,0,1-5.8,13.9L197.8,68a19.66,19.66,0,0,0-13.9-33.6H26.8Z" transform="translate(-18.3 -25.99)"/><path d="M34.9,26.3H192A19.67,19.67,0,0,1,211.7,46a19.24,19.24,0,0,1-5.8,13.9L197.8,68a19.66,19.66,0,0,0-13.9-33.6H26.8Z" transform="translate(-18.3 -25.99)"/><path class="cls-2" d="M34.9,26.3H192A19.67,19.67,0,0,1,211.7,46a19.24,19.24,0,0,1-5.8,13.9L197.8,68a19.66,19.66,0,0,0-13.9-33.6H26.8Z" transform="translate(-18.3 -25.99)"/><path class="cls-3" d="M169.4,54.2a14.4,14.4,0,1,1,14.4,14.4,14.4,14.4,0,0,1-14.4-14.4" transform="translate(-18.3 -25.99)"/><path d="M183.8,73.7A19.65,19.65,0,0,1,168,65.8H125.8L118,73.7h65.8Z" transform="translate(-18.3 -25.99)"/><path d="M183.8,73.7A19.65,19.65,0,0,1,168,65.8H125.8L118,73.7h65.8Z" transform="translate(-18.3 -25.99)"/><path class="cls-4" d="M183.8,73.7A19.65,19.65,0,0,1,168,65.8H125.8L118,73.7h65.8Z" transform="translate(-18.3 -25.99)"/></svg>