<?xml version="1.0" encoding="utf-8"?>
<!-- Generator: Adobe Illustrator 15.1.0, SVG Export Plug-In . SVG Version: 6.00 Build 0)  -->
<!DOCTYPE svg PUBLIC "-//W3C//DTD SVG 1.1//EN" "http://www.w3.org/Graphics/SVG/1.1/DTD/svg11.dtd">
<svg version="1.1" id="Ebene_1" xmlns="http://www.w3.org/2000/svg" xmlns:xlink="http://www.w3.org/1999/xlink" x="0px" y="0px"
	 width="30px" height="30px" viewBox="0 0 30 30" style="enable-background:new 0 0 30 30;" xml:space="preserve">
<style type="text/css">
<![CDATA[
	.st0{fill:#19232D;}
	.st1{fill:#B9C832;}
	.st2{fill:none;stroke:#B9C832;stroke-miterlimit:10;}
]]>
</style>
<g>
	<path class="st0" d="M15,26.2C8.7,26.2,3.5,21,3.5,14.7S8.7,3.2,15,3.2c6.3,0,11.5,5.2,11.5,11.5S21.3,26.2,15,26.2z"/>
	<g>
		<path class="st0" d="M15,4.2c5.8,0,10.5,4.7,10.5,10.5S20.8,25.2,15,25.2c-5.8,0-10.5-4.7-10.5-10.5S9.2,4.2,15,4.2 M15,2.2
			C8.1,2.2,2.5,7.8,2.5,14.7S8.1,27.2,15,27.2c6.9,0,12.5-5.6,12.5-12.5S21.9,2.2,15,2.2L15,2.2z"/>
	</g>
</g>
<g>
	<g>
		<path class="st2" d="M19.5,19c0,0.8-0.7,1.5-1.5,1.5h-6c-0.8,0-1.5-0.7-1.5-1.5v-2c0-0.8,0.7-1.5,1.5-1.5h6c0.8,0,1.5,0.7,1.5,1.5
			V19z"/>
	</g>
	<g>
		<path class="st2" d="M10,17.5H9.1c-0.6,0-1.6-0.5-1.6-1.1v-4.7c0-0.6,0.9-1.1,1.6-1.1h12.3c0.6,0,1.2,0.5,1.2,1.1v4.7
			c0,0.6-0.5,1.1-1.2,1.1H20"/>
	</g>
	<g>
		<path class="st2" d="M11.5,11V9.1c0-0.9,0.8-1.6,1.7-1.6h4.1c0.9,0,1.2,0.7,1.2,1.6V11"/>
	</g>
	<rect x="19" y="12" class="st1" width="1" height="1"/>
</g>
</svg>
