<?xml version="1.0" encoding="utf-8"?>
<!-- Generator: Adobe Illustrator 15.1.0, SVG Export Plug-In . SVG Version: 6.00 Build 0)  -->
<!DOCTYPE svg PUBLIC "-//W3C//DTD SVG 1.1//EN" "http://www.w3.org/Graphics/SVG/1.1/DTD/svg11.dtd">
<svg version="1.1" id="Ebene_1" xmlns="http://www.w3.org/2000/svg" xmlns:xlink="http://www.w3.org/1999/xlink" x="0px" y="0px"
	 width="30px" height="30px" viewBox="0 0 30 30" style="enable-background:new 0 0 30 30;" xml:space="preserve">
<style type="text/css">
<![CDATA[
	.st0{fill:#19232D;}
	.st1{fill:#B9C832;}
	.st2{fill:none;stroke:#B9C832;stroke-miterlimit:10;}
]]>
</style>
<g>
	<path class="st0" d="M15,26.2C8.7,26.2,3.5,21,3.5,14.7S8.7,3.2,15,3.2c6.3,0,11.5,5.2,11.5,11.5S21.3,26.2,15,26.2z"/>
	<g>
		<path class="st0" d="M15,4.2c5.8,0,10.5,4.7,10.5,10.5S20.8,25.2,15,25.2c-5.8,0-10.5-4.7-10.5-10.5S9.2,4.2,15,4.2 M15,2.2
			C8.1,2.2,2.5,7.8,2.5,14.7S8.1,27.2,15,27.2c6.9,0,12.5-5.6,12.5-12.5S21.9,2.2,15,2.2L15,2.2z"/>
	</g>
</g>
<g>
	<g>
		<g>
			<g>
				<g>
					<line class="st2" x1="14.5" y1="8.4" x2="14.5" y2="17.3"/>
					<g>
						<polygon class="st1" points="10.4,14 11.1,13.3 14.5,16.9 17.9,13.3 18.6,14 14.5,18.4 						"/>
					</g>
				</g>
			</g>
			<g>
				<polyline class="st2" points="8.5,18 8.5,20.5 20.5,20.5 20.5,18 				"/>
			</g>
		</g>
	</g>
</g>
</svg>
