<svg id="Ebene_1" data-name="Ebene 1" xmlns="http://www.w3.org/2000/svg" viewBox="0 0 25 25"><defs><style>.cls-1{fill:#19232d;}.cls-2{fill:none;}.cls-2,.cls-3{stroke:#b9c832;stroke-miterlimit:10;stroke-width:0.5px;}</style></defs><title>icon_table_view2</title><path class="cls-1" d="M50,26.5A11.5,11.5,0,1,1,61.5,15,11.57,11.57,0,0,1,50,26.5Z" transform="translate(-37.5 -2.5)"/><path class="cls-1" d="M50,4.5A10.5,10.5,0,1,1,39.5,15,10.5,10.5,0,0,1,50,4.5m0-2A12.5,12.5,0,1,0,62.5,15,12.5,12.5,0,0,0,50,2.5h0Z" transform="translate(-37.5 -2.5)"/><path class="cls-2" d="M46.59,8.24H43.23v3.35h3.35V8.24Zm-0.38,3h-2.6V8.62h2.6v2.6Z" transform="translate(-37.5 -2.5)"/><path class="cls-3" d="M43.23,16.68h3.35V13.32H43.23v3.35Zm0.38-3h2.6v2.6h-2.6V13.7Z" transform="translate(-37.5 -2.5)"/><path class="cls-3" d="M43.23,21.76h3.35V18.41H43.23v3.35Zm0.38-3h2.6v2.6h-2.6v-2.6Z" transform="translate(-37.5 -2.5)"/><path class="cls-3" d="M48.34,16.68h8.43V13.32H48.34v3.35Zm0.38-3h7.68v2.6H48.71V13.7Z" transform="translate(-37.5 -2.5)"/><path class="cls-3" d="M48.34,21.76h8.43V18.41H48.34v3.35Zm0.38-3h7.68v2.6H48.71v-2.6Z" transform="translate(-37.5 -2.5)"/><path class="cls-3" d="M56.77,8.24H48.34v3.35h8.43V8.24h0Zm-0.38,3H48.71V8.62h7.68v2.6h0Z" transform="translate(-37.5 -2.5)"/></svg>