<svg id="Ebene_1" data-name="Ebene 1" xmlns="http://www.w3.org/2000/svg" viewBox="0 0 25 25"><defs><style>.cls-1{fill:#19232d;}.cls-2{fill:#b9c832;stroke:#b9c832;stroke-miterlimit:10;stroke-width:0.2px;}</style></defs><title>icon_grid_view2</title><path class="cls-1" d="M50,61.13a11.5,11.5,0,1,1,11.5-11.5A11.57,11.57,0,0,1,50,61.13Z" transform="translate(-37.5 -37.12)"/><path class="cls-1" d="M50,39.12a10.5,10.5,0,1,1-10.5,10.5A10.5,10.5,0,0,1,50,39.12m0-2a12.5,12.5,0,1,0,12.5,12.5A12.5,12.5,0,0,0,50,37.12h0Z" transform="translate(-37.5 -37.12)"/><path class="cls-2" d="M48.07,46.59h3.86V42.73H48.07v3.86Zm0.55-3.31h2.76V46H48.62V43.28Zm-5.51,3.31H47V42.73H43.11v3.86Zm0.55-3.31h2.76V46H43.66V43.28ZM53,42.73v3.86h3.86V42.73H53ZM56.34,46H53.58V43.28h2.76V46Zm-8.27,5.51h3.86V47.69H48.07v3.86Zm0.55-3.31h2.76V51H48.62V48.25Zm-5.51,3.31H47V47.69H43.11v3.86Zm0.55-3.31h2.76V51H43.66V48.25ZM53,51.56h3.86V47.69H53v3.86Zm0.55-3.31h2.76V51H53.58V48.25Zm-5.51,8.27h3.86V52.66H48.07v3.86Zm0.55-3.31h2.76V56H48.62V53.21Zm-5.51,3.31H47V52.66H43.11v3.86Zm0.55-3.31h2.76V56H43.66V53.21ZM53,56.52h3.86V52.66H53v3.86Zm0.55-3.31h2.76V56H53.58V53.21Z" transform="translate(-37.5 -37.12)"/></svg>