<?xml version="1.0" encoding="utf-8"?>
<!-- Generator: Adobe Illustrator 15.1.0, SVG Export Plug-In . SVG Version: 6.00 Build 0)  -->
<!DOCTYPE svg PUBLIC "-//W3C//DTD SVG 1.1//EN" "http://www.w3.org/Graphics/SVG/1.1/DTD/svg11.dtd">
<svg version="1.1" id="Ebene_1" xmlns="http://www.w3.org/2000/svg" xmlns:xlink="http://www.w3.org/1999/xlink" x="0px" y="0px"
	 width="100px" height="70px" viewBox="0 0 100 70" style="enable-background:new 0 0 100 70;" xml:space="preserve">
<style type="text/css">
<![CDATA[
	.st0{fill:#E6E6E6;}
	.st1{fill:#FFFFFF;stroke:#46555A;stroke-miterlimit:10;}
	.st2{fill:#B9C832;}
	.st3{fill:#BF483C;}
	.st4{fill:none;stroke:#BF483C;stroke-width:2;stroke-miterlimit:10;}
	.st5{fill:none;stroke:#B9C832;stroke-width:2;stroke-miterlimit:10;}
	.st6{fill:#FFFFFF;stroke:#46555A;stroke-width:2;stroke-miterlimit:10;}
	.st7{fill:none;stroke:#B9C832;stroke-width:2;stroke-linejoin:round;stroke-miterlimit:10;}
]]>
</style>
<rect x="40" y="65" class="st2" width="18" height="5"/>
<g>
	<g>
		<g>
			<g>
				<path class="st4" d="M25.4,46.9c0.5-10.5,4.5-29,26.7-28.4c6.9,0.2,17.7,3.7,24.6,6.2"/>
				<g>
					<polygon class="st3" points="27.7,45.3 25.4,54 23.1,45.3 					"/>
				</g>
				<g>
					<polygon class="st3" points="74.5,26.3 83.5,27 76.1,21.9 					"/>
				</g>
			</g>
		</g>
		<path class="st1" d="M49.4,22.1c-8.8,0-16,7.1-16,16c0,8.8,7.2,16,16,16c8.8,0,16-7.2,16-16C65.4,29.2,58.3,22.1,49.4,22.1z
			 M49.4,44c-3.3,0-6-2.7-6-6s2.7-6,6-6c3.3,0,6,2.7,6,6S52.8,44,49.4,44z"/>
	</g>
	<g>
		<g>
			<path class="st0" d="M94,60.8c0,1.2-1,2.2-2.2,2.2H8.2C7,63,6,62,6,60.8V10.2C6,9,7,8,8.2,8h83.6C93,8,94,9,94,10.2V60.8z"/>
			<path class="st5" d="M94,60.8c0,1.2-1,2.2-2.2,2.2H8.2C7,63,6,62,6,60.8V10.2C6,9,7,8,8.2,8h83.6C93,8,94,9,94,10.2V60.8z"/>
		</g>
	</g>
	<path class="st6" d="M49.4,22.1c-8.8,0-16,7.1-16,16c0,8.8,7.2,16,16,16c8.8,0,16-7.2,16-16C65.4,29.2,58.3,22.1,49.4,22.1z
		 M49.4,44c-3.3,0-6-2.7-6-6s2.7-6,6-6c3.3,0,6,2.7,6,6S52.8,44,49.4,44z"/>
</g>
<g>
	<g>
		<g>
			<path class="st4" d="M57.1,16.1h-8.2c-12.2,0-22.3,9.9-22.3,22.1v8.5"/>
			<g>
				<polygon class="st3" points="55.6,13.8 64.2,16.2 55.6,18.5 				"/>
			</g>
			<g>
				<polygon class="st3" points="24.4,45.1 26.7,53.8 29,45.1 				"/>
			</g>
		</g>
	</g>
</g>
<line class="st7" x1="33" y1="69" x2="66" y2="69"/>
</svg>
