<?xml version="1.0" encoding="utf-8"?>
<!-- Generator: Adobe Illustrator 15.1.0, SVG Export Plug-In . SVG Version: 6.00 Build 0)  -->
<!DOCTYPE svg PUBLIC "-//W3C//DTD SVG 1.1//EN" "http://www.w3.org/Graphics/SVG/1.1/DTD/svg11.dtd">
<svg version="1.1" id="Ebene_1" xmlns="http://www.w3.org/2000/svg" xmlns:xlink="http://www.w3.org/1999/xlink" x="0px" y="0px"
	 width="30px" height="30px" viewBox="0 0 30 30" style="enable-background:new 0 0 30 30;" xml:space="preserve">
<style type="text/css">
<![CDATA[
	.st0{fill:#19232D;}
	.st1{fill:none;stroke:#B9C832;stroke-miterlimit:10;}
	.st2{fill:none;stroke:#B9C832;stroke-linecap:round;stroke-miterlimit:10;}
]]>
</style>
<g>
	<circle class="st0" cx="15" cy="14.7" r="12.5"/>
</g>
<g>
	<g>
		<g>
			<path class="st2" d="M10.9,9.5c0.4,0,1.1-0.3,1.3-0.6c0-0.1,1.2-1.5,2.8-1.5c1.6,0,2.7,1.4,2.8,1.5c0.3,0.3,0.9,0.6,1.3,0.6"/>
		</g>
	</g>
	<g>
		<path class="st1" d="M21.5,11c0,0.3-0.2,0.5-0.5,0.5H9c-0.3,0-0.5-0.2-0.5-0.5v-1c0-0.3,0.2-0.5,0.5-0.5h12c0.3,0,0.5,0.2,0.5,0.5
			V11z"/>
	</g>
	<g>
		<g>
			<path class="st1" d="M20.5,19.9c0,0.9-0.7,1.6-1.6,1.6h-7.8c-0.9,0-1.6-0.7-1.6-1.6v-6.8c0-0.9,0.7-1.6,1.6-1.6h7.8
				c0.9,0,1.6,0.7,1.6,1.6V19.9z"/>
		</g>
		<line class="st1" x1="12.5" y1="12" x2="12.5" y2="21"/>
		<line class="st1" x1="17.5" y1="12" x2="17.5" y2="21"/>
	</g>
</g>
</svg>
